<mxfile host="app.diagrams.net" modified="2023-04-04T05:36:32.813Z" agent="Mozilla/5.0 (Windows NT 10.0; Win64; x64) AppleWebKit/537.36 (KHTML, like Gecko) Chrome/89.0.4389.128 Safari/537.36" version="21.1.2" etag="ejFL4yrDB4W7yhbfvVBe" type="github">
  <diagram name="Сторінка-1" id="wVlXKS15ubtF_tKjmC4L">
    <mxGraphModel>
      <root>
        <mxCell id="0" />
        <mxCell id="1" parent="0" />
      </root>
    </mxGraphModel>
  </diagram>
</mxfile>
